# xmcd
#
# Track frame offsets:
#	150
#	15837
#	31092
#	50441
#	73534
#	90954
#	110815
#	129030
#	141538
#	156540
#	171156
#	188552
#
# Disc length: 2712 seconds
#
# Revision: 1
# Processed by: cddbd v1.5PL3 Copyright (c) Steve Scherf et al.
# Submitted via: audiograbber 1.81.03
#
DISCID=950a960c
DTITLE=Ronnie`Burla - Don't Do That
DYEAR=2003
DGENRE=Blues
TTITLE0=Whose Bed
TTITLE1=Baby Don't You Cry
TTITLE2=Frig It
TTITLE3=Memories of Strangers
TTITLE4=Another Notch On Your Selt
TTITLE5=Watch It
TTITLE6=One Last Chance
TTITLE7=Baby
TTITLE8=Too Colse for Comfort
TTITLE9=Don't Do That
TTITLE10=Hidden Track
TTITLE11=Data Track
EXTD=
EXTT0=
EXTT1=
EXTT2=
EXTT3=
EXTT4=
EXTT5=
EXTT6=
EXTT7=
EXTT8=
EXTT9=
EXTT10=
EXTT11=
PLAYORDER=
